# xmcd
#
# Track frame offsets: 
#        150
#        10827
#        23242
#        34117
#        46240
#        57750
#        69740
#        80852
#        93565
#        106607
#        119147
#        131187
#        144662
#        156060
#        169384
#        181852
#        193472
#        207015
#        220327
#        233800
#
# Disc length: 3291 seconds
#
# Revision: 5
# Processed by: cddbd v1.5.2PL0 Copyright (c) Steve Scherf et al.
# Submitted via: ExactAudioCopy v0.99pb5
#
DISCID=270cd914
DTITLE=Various Artist - Millennium New Soul Party
DYEAR=2000
DGENRE=Soul
TTITLE0=Arthur Conley - Sweet Soul Music
TTITLE1=Four Tops - I Can't Help Myself
TTITLE2=Aretha Franklin - Respect
TTITLE3=Aaron Neville - Tell It Like It Is
TTITLE4=Wilson Pickett - In The Midnight Hour
TTITLE5=Sam And Dave - Soul Man
TTITLE6=Brenton Wood - The Oogum Boogum Song
TTITLE7=Mary Wells - My Guy
TTITLE8=Booker T. And The MGs - Green Onions
TTITLE9=James Brown - I Got You (I Feel Good)
TTITLE10=Martha And The Vandellas - Dancing In The Street
TTITLE11=Jackie Wilson - (Your Love Keeps Lifting Me) Higher And Highe
TTITLE11=r
TTITLE12=Clarence Carter - Slip Away
TTITLE13=Temptations - My Girl
TTITLE14=Otis Redding - (Sittin' On) The Dock Of The Bay
TTITLE15=Supremes - Where Did Our Love Go
TTITLE16=Marvin Gaye - How Sweet It Is (To Be Loved By You)
TTITLE17=Percy Sledge - When A Man Loves A Woman
TTITLE18=Miracles - You've Really Got A Hold On Me
TTITLE19=Gladys Knight And The Pips - I Heard It Through The Grapevine
EXTD=ID3G:   0
EXTT0=
EXTT1=
EXTT2=
EXTT3=
EXTT4=
EXTT5=
EXTT6=
EXTT7=
EXTT8=
EXTT9=
EXTT10=
EXTT11=
EXTT12=
EXTT13=
EXTT14=
EXTT15=
EXTT16=
EXTT17=
EXTT18=
EXTT19=
PLAYORDER=
